<svg xmlns="http://www.w3.org/2000/svg" data-name="S_Audio_24_N@2x" height="48" id="S_Audio_24_N_2x" viewBox="0 0 48 48" width="48">
  <defs>
    <style>
      .cls-1 {
        fill: #707070;
        fill-rule: evenodd;
      }

      
    </style>
  </defs>
  <title>S_Audio_24_N@2x</title>
  <rect id="Canvas" fill="#ff13dc" opacity="0" width="48" height="48" /><path class="cls-1" d="M40.327.908,17.57,6.805A2.066,2.066,0,0,0,16,8.742V32.454A8.553,8.553,0,0,0,13.235,32a12.307,12.307,0,0,0-4.744,1C3.731,35,1.029,39.373,2.457,42.76c.947,2.248,3.474,3.5,6.458,3.5a12.311,12.311,0,0,0,4.744-1C17.677,43.567,20,40.2,20,37.143V13.172L38,8.452v18A8.553,8.553,0,0,0,35.235,26a12.307,12.307,0,0,0-4.744,1c-4.76,2.005-7.462,6.376-6.034,9.763.947,2.248,3.474,3.5,6.458,3.5a12.311,12.311,0,0,0,4.744-1C39.677,37.567,42,34.2,42,31.143V2.156A1.348,1.348,0,0,0,40.327.908Z" />
  </svg>